The Jackie Robinson Story

     The Jackie Robinson Story details the heroic struggles and triumphs of the first black player to play in the Major Leagues. Blessed with athleticism, talent and determination, Jackie Robinson revolutionized the nation’s past time and pave the way for generations of future stars. In this heartwarming film, we see Jackie Robinson played with courage and conviction by no less than the man himself. Follow his exploits from the negro leagues all the way up to his starting turn as first baseman for the Brooklyn Dodgers.
Rudy Dee, Minor Watson and Louise Beavers add support in roles depicting those closest to Jackie in real life.

General
Complete name                    : The Jackie Robinson Story
Format                           : AVI
Format/Info                      : Audio Video Interleave
File size                        : 6.08 MiB
Duration                         : 29s 96ms
Overall bit rate                 : 1 752 Kbps

Video
Format                           : MPEG-4 Visual
Format profile                   : Simple@L3
Format settings, BVOP            : Yes
Format settings, QPel            : No
Format settings, GMC             : No warppoints
Format settings, Matrix          : Default (H.263)
Codec ID                         : XVID
Codec ID/Hint                    : XviD
Duration                         : 29s 96ms
Bit rate                         : 1 610 Kbps
Width                            : 640 pixels
Height                           : 480 pixels
Display aspect ratio             : 4/3
Frame rate                       : 29.970 fps
Resolution                       : 24 bits
Scan type                        : Progressive
Bits/(Pixel*Frame)               : 0.175
Stream size                      : 5.59 MiB (92%)

Audio
Format                           : MPEG Audio
Format version                   : Version 1
Format profile                   : Layer 3
Codec ID                         : 55
Codec ID/Hint                    : MP3
Duration                         : 29s 48ms
Bit rate mode                    : Constant
Bit rate                         : 128 Kbps
Channel(s)                       : 2 channels
Sampling rate                    : 44.1 KHz
Resolution                       : 16 bits
Stream size                      : 453 KiB (7%)
Alignment                        : Aligned on interleaves
Interleave, duration             : 26 ms (0.78 video frame)
Interleave, preload duration     : 26 ms
Writing library                  : LAME3.97
